<svg width="404.65" height="98.18" version="1.1" viewBox="0 0 404.65 98.18" xmlns="http://www.w3.org/2000/svg">
 <defs>
  <clipPath id="clip_0">
   <path transform="matrix(1,0,0,-1,0,612)" d="m0 612h792v-612h-792z"/>
  </clipPath>
 </defs>
 <g transform="translate(-193.85 -256.54)" clip-path="url(#clip_0)">
  <path transform="matrix(1 0 0 -1 508.04 299.33)" d="m0 0c-1.216-7.987-7.316-7.987-13.215-7.987h-3.357l2.354 14.912c0.143 0.901 0.92 1.565 1.832 1.565h1.539c4.016 0 7.81 0 9.765-2.288 1.17-1.369 1.524-3.398 1.082-6.202m-2.567 20.837h-22.251c-1.521 0-2.817-1.107-3.053-2.61l-8.998-57.053c-0.177-1.125 0.693-2.143 1.832-2.143h11.416c1.065 0 1.972 0.775 2.138 1.827l2.551 16.174c0.237 1.503 1.532 2.61 3.054 2.61h7.041c14.655 0 23.114 7.093 25.324 21.151 0.995 6.148 0.04 10.978-2.838 14.36-3.165 3.718-8.773 5.684-16.216 5.684" fill="#009cde"/>
  <path transform="matrix(1 0 0 -1 349.35 299.33)" d="m0 0c-1.216-7.987-7.316-7.987-13.216-7.987h-3.356l2.354 14.912c0.142 0.901 0.92 1.565 1.832 1.565h1.539c4.016 0 7.81 0 9.765-2.288 1.17-1.369 1.524-3.398 1.082-6.202m-2.568 20.837h-22.25c-1.521 0-2.817-1.107-3.054-2.61l-8.997-57.053c-0.178-1.125 0.693-2.143 1.832-2.143h10.624c1.521 0 2.816 1.107 3.053 2.609l2.428 15.392c0.237 1.503 1.532 2.61 3.054 2.61h7.041c14.655 0 23.114 7.093 25.324 21.151 0.995 6.148 0.04 10.978-2.838 14.36-3.165 3.718-8.773 5.684-16.217 5.684" fill="#003087"/>
  <path transform="matrix(1 0 0 -1 398.43 319.81)" d="m0 0c-1.029-6.087-5.861-10.174-12.025-10.174-3.091 0-5.564 0.994-7.155 2.876-1.576 1.865-2.169 4.523-1.669 7.483 0.959 6.034 5.869 10.252 11.94 10.252 3.025 0 5.482-1.003 7.103-2.903 1.632-1.913 2.273-4.589 1.806-7.534m14.848 20.738h-10.654c-0.913 0-1.69-0.664-1.832-1.566l-0.469-2.979-0.744 1.079c-2.308 3.349-7.45 4.468-12.585 4.468-11.77 0-21.826-8.92-23.783-21.43-1.018-6.241 0.428-12.206 3.966-16.369 3.252-3.825 7.891-5.417 13.419-5.417 9.488 0 14.75 6.096 14.75 6.096l-0.475-2.962c-0.179-1.126 0.691-2.145 1.832-2.145h9.594c1.521 0 2.816 1.107 3.054 2.609l5.759 36.472c0.178 1.126-0.692 2.144-1.832 2.144" fill="#003087"/>
  <path transform="matrix(1 0 0 -1 557.13 319.81)" d="m0 0c-1.029-6.087-5.862-10.174-12.025-10.174-3.091 0-5.565 0.994-7.155 2.876-1.576 1.865-2.169 4.523-1.669 7.483 0.959 6.034 5.869 10.252 11.94 10.252 3.025 0 5.482-1.003 7.103-2.903 1.632-1.913 2.273-4.589 1.806-7.534m14.848 20.738h-10.654c-0.913 0-1.69-0.664-1.832-1.566l-0.469-2.979-0.744 1.079c-2.308 3.349-7.45 4.468-12.585 4.468-11.77 0-21.826-8.92-23.783-21.43-1.018-6.241 0.427-12.206 3.966-16.369 3.252-3.825 7.891-5.417 13.419-5.417 9.488 0 14.75 6.096 14.75 6.096l-0.476-2.962c-0.178-1.126 0.692-2.145 1.832-2.145h9.595c1.521 0 2.816 1.107 3.053 2.609l5.76 36.472c0.178 1.126-0.692 2.144-1.832 2.144" fill="#009cde"/>
  <path transform="matrix(1 0 0 -1 470.03 299.07)" d="m0 0h-10.709c-1.024 0-1.982-0.508-2.558-1.356l-14.772-21.756-6.26 20.907c-0.392 1.308-1.596 2.205-2.962 2.205h-10.527c-1.271 0-2.165-1.25-1.755-2.454l11.792-34.612-11.092-15.649c-0.87-1.228 8e-3 -2.927 1.514-2.927h10.698c1.014 0 1.964 0.497 2.541 1.33l35.614 51.4c0.853 1.23-0.028 2.912-1.524 2.912" fill="#003087"/>
  <path transform="matrix(1 0 0 -1 584.54 280.06)" d="m0 0-9.132-58.097c-0.177-1.125 0.693-2.143 1.832-2.143h9.184c1.522 0 2.817 1.107 3.054 2.61l9.004 57.053c0.178 1.126-0.692 2.144-1.832 2.144h-10.278c-0.913 0-1.69-0.665-1.832-1.567" fill="#009cde"/>
  <path transform="matrix(1 0 0 -1 268.83 281.48)" d="m0 0c1.198 7.637-9e-3 12.834-4.139 17.541-4.548 5.183-12.765 7.403-23.277 7.403h-30.514c-2.148 0-3.978-1.563-4.312-3.686l-12.707-80.573c-0.25-1.589 0.978-3.027 2.588-3.027h18.838l-1.301-8.245c-0.219-1.391 0.856-2.649 2.264-2.649h15.878c1.88 0 3.48 1.368 3.773 3.225l0.156 0.806 2.991 18.969 0.193 1.047c0.292 1.857 1.893 3.225 3.772 3.225h2.375c15.383 0 27.428 6.249 30.947 24.323 1.471 7.552 0.711 13.856-3.179 18.288-1.176 1.34-2.639 2.449-4.346 3.353" fill="#009cde"/>
  <path transform="matrix(1 0 0 -1 268.83 281.48)" d="m0 0c1.198 7.637-9e-3 12.834-4.139 17.541-4.548 5.183-12.765 7.403-23.277 7.403h-30.514c-2.148 0-3.978-1.563-4.312-3.686l-12.707-80.573c-0.25-1.589 0.978-3.027 2.588-3.027h18.838l4.732 30.006-0.147-0.94c0.335 2.122 2.149 3.685 4.297 3.685h8.953c17.584 0 31.353 7.144 35.376 27.804 0.119 0.612 0.221 1.204 0.312 1.787" fill="#012169"/>
  <path transform="matrix(1 0 0 -1 225.12 281.58)" d="m0 0c0.201 1.276 1.021 2.322 2.124 2.85 0.501 0.241 1.061 0.374 1.648 0.374h23.92c2.833 0 5.475-0.185 7.891-0.574 0.69-0.111 1.362-0.239 2.014-0.384 0.653-0.145 1.286-0.307 1.899-0.486 0.307-0.09 0.609-0.184 0.905-0.282 1.186-0.394 2.291-0.858 3.307-1.397 1.197 7.638-9e-3 12.835-4.139 17.541-4.548 5.183-12.765 7.403-23.277 7.403h-30.514c-2.149 0-3.978-1.563-4.313-3.685l-12.706-80.573c-0.251-1.59 0.978-3.028 2.588-3.028h18.838l4.732 30.007z" fill="#003087"/>
 </g>
</svg>
