<?xml version="1.0" encoding="UTF-8" standalone="no"?>
<!-- Uploaded to: SVG Repo, www.svgrepo.com, Generator: SVG Repo Mixer Tools -->

<svg
   height="800px"
   width="800px"
   version="1.1"
   id="Capa_1"
   viewBox="0 0 416.991 416.991"
   xml:space="preserve"
   sodipodi:docname="icon.svg"
   inkscape:version="1.1.1 (3bf5ae0d25, 2021-09-20)"
   xmlns:inkscape="http://www.inkscape.org/namespaces/inkscape"
   xmlns:sodipodi="http://sodipodi.sourceforge.net/DTD/sodipodi-0.dtd"
   xmlns="http://www.w3.org/2000/svg"
   xmlns:svg="http://www.w3.org/2000/svg"><defs
   id="defs37" /><sodipodi:namedview
   id="namedview35"
   pagecolor="#98d2ff"
   bordercolor="#666666"
   borderopacity="1.0"
   inkscape:pageshadow="2"
   inkscape:pageopacity="0"
   inkscape:pagecheckerboard="0"
   showgrid="false"
   inkscape:zoom="0.545625"
   inkscape:cx="428.86598"
   inkscape:cy="581.90149"
   inkscape:window-width="2560"
   inkscape:window-height="1361"
   inkscape:window-x="-9"
   inkscape:window-y="-9"
   inkscape:window-maximized="1"
   inkscape:current-layer="path854" />

<g
   inkscape:groupmode="layer"
   id="layer1"
   inkscape:label="Layer 1"
   style="display:inline"><g
     id="path854"
     transform="matrix(0.97655572,0,0,0.97653529,9.0513385,0.35053722)"
     style="fill:#e87272;fill-opacity:1;stroke:none;stroke-width:10.6751;stroke-miterlimit:4;stroke-dasharray:none;stroke-opacity:1"><path
       id="path1638"
       style="color:#000000;fill:#f2f2f2;fill-opacity:1;stroke:#404040;stroke-width:18.788;stroke-linejoin:round;stroke-miterlimit:4;stroke-dasharray:none;stroke-opacity:1"
       d="m 402.50391,40.470703 c -25.03534,0 -50.07034,8.822399 -69.90821,26.46875 L 214.25391,172.19922 46.324219,321.56055 c -12.618753,11.22429 -13.748533,30.55209 -2.523438,43.16992 5.758458,6.2753 13.873365,9.86486 22.390625,9.9043 14.837238,0.004 29.674476,0.002 44.511714,0.002 v 193.81612 c 0,35.20473 -0.19176,62.21537 3.00586,86.01368 3.19763,23.79836 11.07465,46.34699 27.80274,63.08593 16.72809,16.73925 39.27975,24.63138 63.07031,27.83204 23.79057,3.20065 50.78591,3.00585 85.96875,3.00585 h 37.31836 149.26953 37.31641 c 35.18249,0 62.18021,0.1948 85.9707,-3.00585 23.79046,-3.20066 46.33811,-11.08924 63.06641,-27.82813 16.72833,-16.73889 24.60699,-39.29143 27.80469,-63.08984 3.19767,-23.79838 3.00781,-50.80895 3.00781,-86.01368 V 374.637 c 14.83659,0 29.67317,0 44.50976,0 8.51824,-0.0394 16.634,-3.63001 22.39258,-9.90653 11.22411,-12.61888 10.09258,-31.94675 -2.52734,-43.16992 L 590.75586,172.19922 472.41211,66.939453 c -19.83787,-17.646351 -44.87287,-26.46875 -69.9082,-26.46875 z"
       transform="matrix(0.56816899,0,0,0.5682126,-24.457509,-10.975142)"
       sodipodi:nodetypes="sccccccsscssccsssssccccccs" /></g></g><g
   inkscape:groupmode="layer"
   id="layer2"
   inkscape:label="Layer 2"><g
     id="g1553"
     transform="matrix(0.97665757,0,0,0.9767121,2.9997884,27.250966)"
     style="stroke-width:1.02387"><g
       id="g32"
       transform="matrix(0.5441019,0,0,0.5441019,96.963089,131.35455)"
       style="stroke-width:1.88175">
	
	<g
   id="g30"
   style="stroke-width:1.88175">
		<path
   style="fill:#89634a;stroke-width:1.88175"
   d="m 192.218,114.556 c 5.926,7.242 9.488,16.489 9.488,26.555 0,23.159 -18.841,42 -42,42 -12.822,0 -24.314,-5.782 -32.024,-14.869 7.708,9.42 19.419,15.445 32.512,15.445 23.159,0 42,-18.841 42,-42 0,-10.336 -3.76,-19.806 -9.976,-27.131 z"
   id="path16" />
		<path
   style="fill:#89634a;stroke-width:1.88175"
   d="m 173.948,292.295 c 0,23.159 -18.841,42 -42,42 -12.822,0 -24.314,-5.782 -32.024,-14.869 7.709,9.42 19.419,15.445 32.512,15.445 23.159,0 42,-18.841 42,-42 0,-10.337 -3.761,-19.806 -9.976,-27.131 5.925,7.242 9.488,16.489 9.488,26.555 z"
   id="path18" />
		<path
   style="fill:#89634a;stroke-width:1.88175"
   d="m 300.475,260.259 c 0,29.776 -24.225,54 -54,54 -16.543,0 -31.365,-7.485 -41.279,-19.238 9.911,12.087 24.952,19.815 41.767,19.815 29.775,0 54,-24.224 54,-54 0,-13.232 -4.792,-25.361 -12.721,-34.762 7.64,9.317 12.233,21.223 12.233,34.185 z"
   id="path20" />
		<path
   d="m 159.706,183.111 c 23.159,0 42,-18.841 42,-42 0,-10.066 -3.562,-19.313 -9.488,-26.555 -7.708,-9.42 -19.418,-15.445 -32.512,-15.445 -23.159,0 -42,18.841 -42,42 0,10.337 3.761,19.806 9.976,27.131 7.711,9.087 19.202,14.869 32.024,14.869 z m 0,-64 c 12.131,0 22,9.869 22,22 0,12.131 -9.869,22 -22,22 -12.131,0 -22,-9.869 -22,-22 0,-12.131 9.87,-22 22,-22 z"
   id="path22"
   style="fill:#404040;fill-opacity:1;stroke-width:1.88175" />
		<path
   d="m 131.948,334.295 c 23.159,0 42,-18.841 42,-42 0,-10.066 -3.562,-19.313 -9.488,-26.555 -7.708,-9.42 -19.419,-15.445 -32.512,-15.445 -23.159,0 -42,18.841 -42,42 0,10.337 3.761,19.806 9.976,27.131 7.71,9.087 19.201,14.869 32.024,14.869 z m 0,-64 c 12.131,0 22,9.869 22,22 0,12.131 -9.869,22 -22,22 -12.131,0 -22,-9.869 -22,-22 0,-12.131 9.869,-22 22,-22 z"
   id="path24"
   style="fill:#404040;fill-opacity:1;stroke-width:1.88175" />
		<path
   d="m 416.97,206.596 -0.013,-0.831 c -0.064,-5.279 -4.222,-9.598 -9.494,-9.864 -14.875,-0.751 -28.007,-9.639 -34.27,-23.193 -1.245,-2.694 -3.623,-4.696 -6.489,-5.465 -2.867,-0.769 -5.927,-0.224 -8.353,1.487 -6.706,4.73 -14.927,7.335 -23.146,7.336 -6.964,0 -13.857,-1.854 -19.935,-5.363 -13.458,-7.77 -21.242,-22.803 -19.83,-38.299 0.269,-2.956 -0.789,-5.879 -2.888,-7.977 -2.1,-2.1 -5.033,-3.154 -7.977,-2.889 -1.195,0.109 -2.411,0.164 -3.614,0.164 -14.272,0 -27.562,-7.662 -34.683,-19.996 -7.77,-13.458 -6.994,-30.369 1.976,-43.084 1.711,-2.425 2.257,-5.485 1.488,-8.352 -0.768,-2.867 -2.77,-5.245 -5.464,-6.49 C 230.73,37.518 221.844,24.393 221.089,9.526 220.821,4.257 216.506,0.102 211.231,0.034 L 210.415,0.021 C 209.777,0.01 209.137,0 208.496,0 93.531,0 0.001,93.531 0.001,208.496 c 0,114.965 93.53,208.496 208.495,208.496 114.965,0 208.495,-93.531 208.495,-208.496 0,-0.635 -0.01,-1.267 -0.021,-1.9 z M 62.414,89.515 c 4.725,4.102 7.563,10.093 7.563,16.596 0,12.131 -9.869,22 -22,22 -3.145,0 -6.202,-0.689 -9.011,-1.954 6.407,-13.137 14.294,-25.424 23.448,-36.642 z m 302.354,224.266 c -5.935,-4.016 -9.724,-10.811 -9.724,-18.234 0,-12.131 9.869,-22 22,-22 2.725,0 5.356,0.501 7.825,1.444 -5.207,13.766 -11.977,26.77 -20.101,38.79 z m 26.18,-57.855 c -4.067,-1.428 -8.354,-2.227 -12.695,-2.354 -0.403,-0.012 -0.806,-0.026 -1.21,-0.026 -0.542,0 -1.077,0.029 -1.615,0.049 -13.344,0.509 -25.11,7.26 -32.449,17.425 -4.987,6.906 -7.937,15.376 -7.937,24.526 0,13.791 6.848,26.454 17.66,34.193 -9.332,11.082 -19.935,21.052 -31.549,29.74 -0.822,0.615 -1.635,1.24 -2.467,1.842 -31.012,22.428 -69.08,35.67 -110.192,35.67 C 104.559,396.991 20,312.433 20,208.496 c 0,-16.276 2.085,-32.073 5.983,-47.148 1.463,-5.657 3.174,-11.215 5.136,-16.655 0.012,-0.032 0.022,-0.065 0.034,-0.098 0.014,0.006 0.029,0.011 0.044,0.018 5.242,2.287 10.938,3.498 16.78,3.498 8.291,0 16.021,-2.425 22.539,-6.588 11.688,-7.466 19.461,-20.544 19.461,-35.412 0,-11.617 -4.733,-22.387 -12.731,-30.139 -0.451,-0.437 -0.906,-0.869 -1.377,-1.286 32.732,-32.446 77.26,-53.009 126.502,-54.589 3.157,14.763 11.764,27.746 24.107,36.418 -8.064,17.495 -7.341,38.179 2.48,55.19 9.771,16.925 27.278,27.985 46.567,29.748 1.761,19.188 12.729,36.747 29.744,46.57 9.114,5.262 19.466,8.043 29.936,8.042 8.82,-0.001 17.392,-1.897 25.258,-5.544 8.676,12.343 21.661,20.947 36.427,24.102 -0.454,14.217 -2.492,28.042 -5.942,41.303 z"
   id="path26"
   style="fill:#404040;fill-opacity:1;stroke-width:1.88175" />
		<path
   d="m 246.475,314.259 c 29.775,0 54,-24.224 54,-54 0,-12.961 -4.593,-24.868 -12.233,-34.185 -9.911,-12.087 -24.952,-19.815 -41.767,-19.815 -29.775,0 -54,24.224 -54,54 0,13.232 4.792,25.361 12.721,34.762 9.914,11.753 24.736,19.238 41.279,19.238 z m 0,-88 c 18.748,0 34,15.252 34,34 0,18.747 -15.252,34 -34,34 -18.748,0 -34,-15.253 -34,-34 0,-18.748 15.252,-34 34,-34 z"
   id="path28"
   style="fill:#404040;fill-opacity:1;stroke-width:1.88175" />
	</g>
</g><g
       id="g14"
       style="stroke-width:1.88175"
       transform="matrix(0.5441019,0,0,0.5441019,96.963089,131.35455)">
		<path
   style="fill:#d4b783;stroke-width:1.88175"
   d="m 344.649,204.32 c -7.807,3.62 -16.314,5.501 -25.067,5.503 -10.392,0.001 -20.665,-2.759 -29.711,-7.982 -16.886,-9.749 -27.772,-27.175 -29.52,-46.218 C 241.208,153.874 223.833,142.897 214.135,126.1 204.388,109.218 203.67,88.69 211.673,71.327 199.422,62.72 190.881,49.836 187.747,35.184 c -41.698,1.338 -79.982,16.399 -110.502,40.79 7.997,7.752 12.731,18.522 12.731,30.139 0,14.868 -7.772,27.946 -19.461,35.412 -6.518,4.163 -14.248,6.588 -22.539,6.588 -5.841,0 -11.538,-1.211 -16.78,-3.498 -0.026,0.027 -0.052,0.053 -0.078,0.08 -1.962,5.439 -3.673,10.997 -5.136,16.655 C 22.086,176.423 20,192.219 20,208.496 c 0,103.937 84.559,188.496 188.495,188.496 41.112,0 79.18,-13.243 110.192,-35.67 0.654,-0.587 1.493,-1.204 2.467,-1.842 11.615,-8.688 22.217,-18.658 31.549,-29.74 -10.812,-7.738 -17.66,-20.402 -17.66,-34.193 0,-9.15 2.95,-17.619 7.937,-24.526 7.339,-10.164 19.105,-16.916 32.449,-17.425 0.523,-0.029 1.057,-0.049 1.615,-0.049 0.404,0 0.807,0.014 1.21,0.026 1.405,-8.275 2.272,-16.73 2.548,-25.333 -14.655,-3.131 -27.542,-11.67 -36.153,-23.92 z M 132.435,334.871 c -13.093,0 -24.803,-6.025 -32.512,-15.445 -6.215,-7.325 -9.976,-16.795 -9.976,-27.131 0,-23.159 18.841,-42 42,-42 13.093,0 24.804,6.025 32.512,15.445 6.215,7.325 9.976,16.795 9.976,27.131 0,23.159 -18.84,42 -42,42 z m 27.759,-151.183 c -13.093,0 -24.803,-6.025 -32.512,-15.445 -6.215,-7.325 -9.976,-16.795 -9.976,-27.131 0,-23.159 18.841,-42 42,-42 13.093,0 24.803,6.025 32.512,15.445 6.215,7.325 9.976,16.795 9.976,27.131 0,23.158 -18.84,42 -42,42 z m 86.769,131.147 c -16.814,0 -31.855,-7.727 -41.767,-19.815 -7.929,-9.401 -12.721,-21.53 -12.721,-34.762 0,-29.776 24.225,-54 54,-54 16.814,0 31.855,7.727 41.767,19.815 7.929,9.401 12.721,21.53 12.721,34.762 0,29.776 -24.225,54 -54,54 z"
   id="path2" />
		<path
   style="fill:#89634a;stroke-width:1.88175"
   d="m 159.706,163.111 c 12.131,0 22,-9.869 22,-22 0,-12.131 -9.869,-22 -22,-22 -12.131,0 -22,9.869 -22,22 0,12.131 9.87,22 22,22 z"
   id="path4" />
		<path
   style="fill:#89634a;stroke-width:1.88175"
   d="m 131.948,314.295 c 12.131,0 22,-9.869 22,-22 0,-12.131 -9.869,-22 -22,-22 -12.131,0 -22,9.869 -22,22 0,12.131 9.869,22 22,22 z"
   id="path6" />
		<path
   style="fill:#89634a;stroke-width:1.88175"
   d="m 69.977,106.111 c 0,-6.503 -2.838,-12.494 -7.563,-16.596 -9.154,11.218 -17.041,23.505 -23.448,36.643 2.809,1.265 5.866,1.954 9.011,1.954 12.131,-0.001 22,-9.87 22,-22.001 z"
   id="path8" />
		<path
   style="fill:#89634a;stroke-width:1.88175"
   d="m 355.043,295.546 c 0,7.423 3.79,14.218 9.724,18.234 8.124,-12.02 14.894,-25.024 20.101,-38.79 -2.469,-0.943 -5.101,-1.444 -7.825,-1.444 -12.13,0 -22,9.869 -22,22 z"
   id="path10" />
		<path
   style="fill:#89634a;stroke-width:1.88175"
   d="m 246.475,294.259 c 18.748,0 34,-15.253 34,-34 0,-18.748 -15.252,-34 -34,-34 -18.748,0 -34,15.252 -34,34 0,18.747 15.252,34 34,34 z"
   id="path12" />
	</g></g></g></svg>
